<?xml version="1.0" standalone="no"?><!DOCTYPE svg PUBLIC "-//W3C//DTD SVG 1.1//EN" "http://www.w3.org/Graphics/SVG/1.1/DTD/svg11.dtd"><svg t="1733072387614" class="icon" viewBox="0 0 1024 1024" version="1.1" xmlns="http://www.w3.org/2000/svg" p-id="23440" xmlns:xlink="http://www.w3.org/1999/xlink" width="200" height="200"><path d="M159.467427 941.709938V876.462197h705.065146v64.760818zM265.616738 82.290062v316.500238A40.414646 40.414646 0 0 0 306.031384 438.231098a101.280076 101.280076 0 0 0 71.090822-29.215406L418.023776 370.061816l39.927722 39.927723a100.793153 100.793153 0 0 0 68.169282 28.241559 40.414646 40.414646 0 0 0 40.414646-40.414645V82.290062h296.536376v712.368996H159.467427V82.290062z m220.089396 0v239.566334l-9.738469-9.738469-37.980028-37.980029a28.24156 28.24156 0 0 0-39.440799 0l-48.692344 48.692345v-243.461722zM864.532573 0H159.467427A82.290062 82.290062 0 0 0 77.177366 82.290062v859.419876A82.290062 82.290062 0 0 0 159.467427 1022.53923h705.065146a82.290062 82.290062 0 0 0 82.290061-82.290062V82.290062A82.290062 82.290062 0 0 0 864.532573 0z" fill="#5E5C5C" p-id="23441"></path></svg>