<?xml version="1.0" standalone="no"?><!DOCTYPE svg PUBLIC "-//W3C//DTD SVG 1.1//EN" "http://www.w3.org/Graphics/SVG/1.1/DTD/svg11.dtd"><svg t="1733071992438" class="icon" viewBox="0 0 1024 1024" version="1.1" xmlns="http://www.w3.org/2000/svg" p-id="10716" xmlns:xlink="http://www.w3.org/1999/xlink" width="200" height="200"><path d="M819 888.2H206c-54 0-97.9-48-97.9-106.9V423.5c0-10.9 7.1-23.9 16.4-29.7 13-8.2 106.3-69.2 106.3-69.2l34.7 53s-64.3 42-94.1 61.3v342.3c0 23.6 15.8 43.6 34.6 43.6h613c18.8 0 34.6-20 34.6-43.6v-338L756.8 384c-14.9-9.1-19.6-28.6-10.5-43.5 9.1-14.9 28.6-19.6 43.5-10.5l112 68.5c9.4 5.8 15.2 16 15.2 27v355.7c-0.1 59-44 107-98 107z" fill="#666666" p-id="10717"></path><path d="M496.8 729.7c-6.8 0-13.7-2.2-19.3-6.6L120.9 448c-13.9-10.7-16.4-30.6-5.7-44.4 10.7-13.9 30.6-16.4 44.4-5.7l338.1 260.8 364.2-255.8c14.3-10.1 34.1-6.6 44.1 7.7 10.1 14.3 6.6 34.1-7.7 44.1L515 724c-5.5 3.8-11.9 5.7-18.2 5.7z" fill="#666666" p-id="10718"></path><path d="M766.1 531.4c-17.5 0-31.7-14.2-31.7-31.7V203.1c-0.4-0.9-3.9-3.9-9.7-3.9H300.2c-5.8 0-9.4 3-9.8 4.2v289.8c0 17.5-14.2 31.7-31.7 31.7S227 510.7 227 493.2v-290c0-37.1 32.8-67.3 73.1-67.3h424.5c40.3 0 73.1 30.2 73.1 67.3v296.7c0.1 17.3-14.1 31.5-31.6 31.5z" fill="#666666" p-id="10719"></path><path d="M636.4 332.3H388.6c-17.5 0-31.7-14.2-31.7-31.7s14.2-31.7 31.7-31.7h247.7c17.5 0 31.7 14.2 31.7 31.7s-14.2 31.7-31.6 31.7z" fill="#666666" p-id="10720"></path><path d="M636.4 439.9H388.6c-17.5 0-31.7-14.2-31.7-31.7s14.2-31.7 31.7-31.7h247.7c17.5 0 31.7 14.2 31.7 31.7 0 17.6-14.2 31.7-31.6 31.7z" fill="#666666" p-id="10721"></path></svg>