<?xml version="1.0" standalone="no"?><!DOCTYPE svg PUBLIC "-//W3C//DTD SVG 1.1//EN" "http://www.w3.org/Graphics/SVG/1.1/DTD/svg11.dtd"><svg t="1734178513445" class="icon" viewBox="0 0 1024 1024" version="1.1" xmlns="http://www.w3.org/2000/svg" p-id="26079" xmlns:xlink="http://www.w3.org/1999/xlink" width="200" height="200"><path d="M512 0c282.7776 0 512 229.2224 512 512s-229.2224 512-512 512S0 794.7776 0 512 229.2224 0 512 0z m137.472 558.336a13.6448 13.6448 0 0 0-11.9296 1.8432 236.7488 236.7488 0 0 1-12.0832 8.3456 187.008 187.008 0 0 1-100.1728 29.952 183.5008 183.5008 0 0 1-65.7664-11.776 196.864 196.864 0 0 1-48.1792-26.3424 13.7216 13.7216 0 0 0-11.4432-2.2016c-3.2512 0.6912-5.7344 3.0208-8.2176 4.9152-32.256 24.9088-57.728 58.1376-74.5216 95.1296a274.9952 274.9952 0 0 0-23.9104 95.4112 13.568 13.568 0 0 0 14.5408 14.336V768h435.0208a13.4912 13.4912 0 0 0 12.1088-9.3184 16.5888 16.5888 0 0 0 0.4608-6.9376 276.6336 276.6336 0 0 0-23.808-93.5168c-16.7168-36.9408-42.1376-70.1184-74.2656-94.9504-2.5088-1.792-4.8128-4.0448-7.8336-4.9152z m-151.3472 112.7168h53.1712a13.4656 13.4656 0 0 1 0 26.9312h-48.3584c-3.6352-0.128-7.5264 0.4096-10.9312-1.152a13.5168 13.5168 0 0 1-8.064-13.7728 13.5168 13.5168 0 0 1 10.2144-11.5968c1.9456-0.512 3.9936-0.4096 5.9392-0.4096zM528.3584 256h-8.1152c-15.2064 0.4096-30.5664 1.92-45.2096 6.3744-54.4256 15.9744-108.8512 32-163.2512 48-7.0656 2.0224-14.1312 4.4544-20.1728 8.7808a24.064 24.064 0 0 0-8.7808 10.9568 19.5328 19.5328 0 0 0 0.3328 14.464c1.792 4.1728 4.992 7.6544 8.6272 10.24 5.12 3.6608 10.9568 5.9648 16.8448 7.7824 8.1152 2.432 16.2304 4.736 24.32 7.168v58.2912c0 6.0416 4.8128 11.52 10.7264 12.6208a13.4912 13.4912 0 0 0 12.3136-3.6864 13.4912 13.4912 0 0 0 3.9936-9.9072v-49.4336l29.5424 8.6784v50.2528c0.1024 21.8368 5.6576 43.5968 16.1024 62.8224a135.3216 135.3216 0 0 0 69.9904 61.7728 135.5008 135.5008 0 0 0 66.304 7.936 134.4768 134.4768 0 0 0 51.7888-18.0736 135.4752 135.4752 0 0 0 58.624-73.216 140.032 140.032 0 0 0 6.7584-47.8976V386.304c27.2128-8.064 54.4256-15.9744 81.5616-24.0384 7.424-2.304 14.9504-5.504 20.3776-11.2128a21.12 21.12 0 0 0 5.9136-12.4672v-3.1744a21.12 21.12 0 0 0-5.7856-12.5184c-5.632-5.9648-13.44-9.216-21.12-11.5712l-151.296-44.544c-7.9872-2.2272-15.872-4.864-23.9104-6.7584A193.3312 193.3312 0 0 0 528.3584 256z m-182.7072 202.3168l-2.6112 0.384a14.3872 14.3872 0 0 0-6.9632 4.352c-2.0736 2.1248-4.2752 4.224-6.3488 6.4a13.5936 13.5936 0 0 0-2.6624 13.7984c0.7936 2.3552 2.4832 4.352 4.2752 6.0672 2.2528 2.1504 4.352 4.5312 6.7072 6.5536 3.9936 3.1744 9.856 3.8144 14.4128 1.5104 3.6608-1.8688 6.0928-5.3248 9.088-8.064a14.1568 14.1568 0 0 0 5.12-10.1376 13.44 13.44 0 0 0-4.0192-10.2912l-7.168-7.1168c-3.3024-3.072-8.1664-4.096-12.4416-3.072z" fill="#1296db" p-id="26080"></path></svg>