<?xml version="1.0" standalone="no"?><!DOCTYPE svg PUBLIC "-//W3C//DTD SVG 1.1//EN" "http://www.w3.org/Graphics/SVG/1.1/DTD/svg11.dtd"><svg t="1733072146463" class="icon" viewBox="0 0 1032 1024" version="1.1" xmlns="http://www.w3.org/2000/svg" p-id="11756" xmlns:xlink="http://www.w3.org/1999/xlink" width="201.5625" height="200"><path d="M988.02368 384v172.8l38.4 38.4-76.8 76.8-76.8-76.8 51.2-44.8V409.6C706.42368 499.2 636.02368 531.2 584.82368 550.4c-44.8 25.6-83.2 25.6-128 6.4-51.2-19.2-281.6-102.4-396.8-160-76.8-38.4-83.2-57.6 0-89.6 108.8-38.4 288-108.8 377.6-140.8 64-25.6 89.6-38.4 140.8-6.4 89.6 38.4 300.8 115.2 403.2 160 96 38.4 32 51.2 6.4 64zM597.62368 620.8c51.2-19.2 128-57.6 204.8-89.6v268.8s-102.4 108.8-281.6 108.8c-192 0-294.4-108.8-294.4-108.8v-256c57.6 25.6 128 44.8 211.2 76.8 51.2 19.2 115.2 25.6 160 0z m0 0" p-id="11757"></path></svg>