<?xml version="1.0" standalone="no"?><!DOCTYPE svg PUBLIC "-//W3C//DTD SVG 1.1//EN" "http://www.w3.org/Graphics/SVG/1.1/DTD/svg11.dtd"><svg t="1732963157398" class="icon" viewBox="0 0 1152 1024" version="1.1" xmlns="http://www.w3.org/2000/svg" p-id="4303" xmlns:xlink="http://www.w3.org/1999/xlink" width="225" height="200"><path d="M277.12 264.64l-188.16-58.112c-2.304 0-4.608-2.112-6.848-6.4-2.304-6.464 0-12.928 6.848-12.928L540.992 36.608c20.672-6.464 43.648-6.464 64.256 0l454.4 146.24c4.544 0 6.848 2.176 9.152 6.464 2.304 6.464 0 12.928-6.912 15.104l-55.04 17.152v131.2c0 4.352 0 10.816 2.304 12.992 6.848 4.288 9.152 12.864 9.152 21.504 0 19.328-18.368 34.432-36.672 34.432-20.672 0-36.736-17.28-36.736-34.432a56.768 56.768 0 0 1 13.76-21.504c4.608-2.176 11.52-8.64 11.52-12.928V234.496l-91.84 27.968c-9.152 4.288-13.76 12.928-11.52 21.504l59.712 178.56c4.608 19.392-2.304 38.72-20.672 47.36L605.248 660.48a77.44 77.44 0 0 1-61.952 0L238.144 507.712c-16.064-8.576-25.28-27.968-18.368-45.184l68.8-176.384c2.304-10.752-2.24-17.216-11.456-21.504zM1082.56 774.4c9.152-2.176 16.064 4.288 18.368 15.04 4.608 8.64 0 19.392-11.52 23.68l-511.68 178.56H570.88l-509.44-178.56a21.12 21.12 0 0 1-11.52-23.68c2.304-10.752 9.216-19.328 18.368-15.04l495.68 174.272a26.688 26.688 0 0 0 18.368 0l500.224-174.272z m-75.712-118.4a44.16 44.16 0 0 1 25.216 15.04c5.248 7.36 11.2 14.72 17.472 22.4 4.736 5.888 9.728 11.968 14.72 18.496 2.24 0 4.544 2.176 4.544 4.288 2.304 6.464-2.304 10.752-6.848 12.928l-477.312 172.096-479.616-172.16-4.544-4.224c-2.304-2.176 0-8.64 2.24-12.928 11.52-12.928 22.976-25.792 32.128-40.896 4.608-10.752 16.064-15.04 25.28-17.216 96.384-10.752 296 8.64 419.904 157.056 2.304 4.288 6.912 4.288 9.216 0 105.536-111.872 261.568-169.92 417.6-154.88z" p-id="4304"></path></svg>