<?xml version="1.0" standalone="no"?><!DOCTYPE svg PUBLIC "-//W3C//DTD SVG 1.1//EN" "http://www.w3.org/Graphics/SVG/1.1/DTD/svg11.dtd"><svg t="1734958783253" class="icon" viewBox="0 0 1024 1024" version="1.1" xmlns="http://www.w3.org/2000/svg" p-id="6946" xmlns:xlink="http://www.w3.org/1999/xlink" width="200" height="200"><path d="M970.4 534.1H767.6V353l85.5 54.4c3.4 2.1 7.1 3.2 10.9 3.2 6.7 0 13.2-3.3 17.1-9.4 6-9.4 3.2-21.9-6.2-27.9L539.7 159.9v-32.1l85.7-36.7c7.3-3.1 12.1-10.3 12.3-18.2 0.2-8-4.4-15.3-11.6-18.7l-98-46.5c-6.3-3-13.6-2.5-19.5 1.2s-9.4 10.2-9.4 17.1v133.8c-25.1 15.5-95.8 59.2-166 102.6-178 110.1-179.1 111.2-181.5 113.6-7.9 7.9-7.9 20.7 0 28.6 7.2 7.2 18.6 7.9 26.6 1.8 5-3.4 38.8-24.5 86.1-53.8V534H59.5c-19.2 0-33.6 19.2-33.6 44.7V619c0 25.5 14.5 44.7 33.6 44.7h37.2V1021H933.1V663.8h37.2c19.2 0 33.6-19.2 33.6-44.7v-40.3c0.2-25.5-14.3-44.7-33.5-44.7zM539.7 57.9l28.6 13.6-28.6 12.2V57.9z m31.5 921.2H454.8l1.4-197.4c0-1.1 0.9-2 2-2h112.4c1.1 0 2 0.9 2 1.9l-1.4 197.5z m-51.9-784.2l207.8 132.3v651.9H611.7l1.4-197.4c0-23.4-19.1-42.5-42.5-42.5H458.2c-23.4 0-42.5 19.1-42.5 42.3L414.3 979H304.8V327.5c66.5-41.2 147.7-91.4 214.5-132.6zM66.4 619.1v-40.3c0-1.7 0.2-3.1 0.4-4.2h197.6v48.8H66.7c-0.2-1.2-0.3-2.6-0.3-4.3z m70.8 44.7h127.1v316.8H137.2V663.8z m755.5 316.9H767.6V663.8h125.1v316.9z m70.9-361.6c0 1.7-0.2 3.1-0.4 4.2H767.6v-48.8h195.6c0.2 1.2 0.4 2.6 0.4 4.2v40.4z" fill="#3D3D63" p-id="6947"></path><path d="M516 575.8c64.2 0 116.3-52.2 116.3-116.3 0-64.2-52.2-116.3-116.3-116.3s-116.3 52.2-116.3 116.3c-0.1 64.1 52.1 116.3 116.3 116.3z m0-192.2c41.8 0 75.9 34 75.9 75.9s-34 75.9-75.9 75.9-75.9-34-75.9-75.9 34-75.9 75.9-75.9z" fill="#3D3D63" p-id="6948"></path><path d="M516 383.6c41.8 0 75.9 34 75.9 75.9s-34 75.9-75.9 75.9-75.9-34-75.9-75.9 34-75.9 75.9-75.9z" fill="#F8B551" p-id="6949"></path><path d="M203.8 720c-11.2 0-20.2 9.1-20.2 20.2v46.7c0 11.2 9.1 20.2 20.2 20.2S224 798 224 786.9v-46.7c0.1-11.2-9-20.2-20.2-20.2zM203.8 844.3c-11.2 0-20.2 9.1-20.2 20.2v46.7c0 11.2 9.1 20.2 20.2 20.2s20.2-9.1 20.2-20.2v-46.7c0.1-11.1-9-20.2-20.2-20.2zM828.7 720c-11.2 0-20.2 9.1-20.2 20.2v46.7c0 11.2 9.1 20.2 20.2 20.2 11.2 0 20.2-9.1 20.2-20.2v-46.7c0-11.2-9.1-20.2-20.2-20.2zM828.7 844.3c-11.2 0-20.2 9.1-20.2 20.2v46.7c0 11.2 9.1 20.2 20.2 20.2 11.2 0 20.2-9.1 20.2-20.2v-46.7c0-11.1-9.1-20.2-20.2-20.2z" fill="#3D3D63" p-id="6950"></path><path d="M539.7 57.9v25.8l28.6-12.2z" fill="#F8B551" p-id="6951"></path><path d="M571.2 979.1H454.8l1.4-197.4c0-1.1 0.9-2 2-2h112.4c1.1 0 2 0.9 2 1.9l-1.4 197.5z" fill="#E9EAEB" p-id="6952"></path><path d="M66.4 578.8v40.3c0 1.7 0.2 3.1 0.4 4.2h197.6v-48.8H66.7c-0.2 1.2-0.3 2.6-0.3 4.3zM963.2 574.5H767.6v48.8h195.6c0.2-1.2 0.4-2.6 0.4-4.2v-40.3c0-1.7-0.2-3.1-0.4-4.3z" fill="#A3D4FF" p-id="6953"></path></svg>