<?xml version="1.0" standalone="no"?><!DOCTYPE svg PUBLIC "-//W3C//DTD SVG 1.1//EN" "http://www.w3.org/Graphics/SVG/1.1/DTD/svg11.dtd"><svg t="1735031641728" class="icon" viewBox="0 0 1069 1024" version="1.1" xmlns="http://www.w3.org/2000/svg" p-id="15081" xmlns:xlink="http://www.w3.org/1999/xlink" width="208.7890625" height="200"><path d="M584.458934 753.724955v169.8214H298.318945V753.724955H584.457934z m0-704.930507v129.326542H298.318945V14.756568H584.457934V48.793448z" fill="#D3EEE4" p-id="15082"></path><path d="M796.464184 814.291741l125.867555-34.904876L954.496626 895.383455 828.630071 930.290331zM710.372489 13.925571l32.377885 117.058586-125.821555 34.867877-32.469885-117.057586 125.913555-34.868877zM644.657721 265.78068l125.784555-34.840876 122.389568 441.914437-125.793556 34.830877z" fill="#C6CA76" p-id="15083"></path><path d="M298.317945 923.546355v5.902979H128.403546V808.97876H298.318945v114.567595zM128.403546 14.756568H298.318945v121.48557H128.403546z m0 225.168204H298.318945v458.545379H128.403546z" fill="#FF8875" p-id="15084"></path><path d="M766.964289 707.658118l125.784555-34.868876 29.508896 106.496623-125.784556 34.867877zM616.901819 165.972033l125.793555-34.839877 27.672903 99.918647-125.793556 34.839877zM298.317945 753.724955v55.253805H128.403546V698.470151H298.318945v55.254804z m0-575.603965v61.803782H128.403546V136.242138H298.318945v41.878852z m286.140989 0v575.603965H298.501945V178.12099zM502.362224 607.701472V330.96945H380.507655V607.701472z" fill="#06C7CA" p-id="15085"></path><path d="M1055.18127 930.280331v79.698719H13.836951v-79.699719h1041.344319z" fill="#FFDB93" p-id="15086"></path><path d="M1055.18127 1024H13.836951A13.836951 13.836951 0 0 1 0 1010.163049v-79.698718a13.836951 13.836951 0 0 1 13.836951-13.836951h1041.344319a13.836951 13.836951 0 0 1 13.836951 13.836951v79.699718a13.836951 13.836951 0 0 1-13.836951 13.835951zM27.672902 996.327098h1013.671417V944.300282H27.672902z m100.730644-742.566375a13.836951 13.836951 0 0 1-13.835951-13.835951V136.242138a13.836951 13.836951 0 1 1 27.672902 0v103.682634a13.836951 13.836951 0 0 1-13.836951 13.835951z m0 569.054988a13.836951 13.836951 0 0 1-13.835951-13.836951V698.286151a13.836951 13.836951 0 1 1 27.672902 0v110.692609a13.836951 13.836951 0 0 1-13.836951 13.836951z" fill="#18252F" p-id="15087"></path><path d="M298.317945 150.078089H128.403546a13.836951 13.836951 0 0 1-13.835951-13.835951V14.756568A13.836951 13.836951 0 0 1 128.403546 0.919617H298.318945a13.836951 13.836951 0 0 1 0 27.672902H142.239497v93.812668H298.318945a13.836951 13.836951 0 0 1 0 27.672902z m0 793.208196H128.403546a13.836951 13.836951 0 0 1-13.835951-13.836951V808.97876a13.836951 13.836951 0 0 1 13.835951-13.836951H298.318945a13.836951 13.836951 0 0 1 0 27.673902H142.239497v92.797672h144.731489a13.836951 13.836951 0 0 1 25.18191 7.932972v5.902979a13.836951 13.836951 0 0 1-13.835951 13.836951z m0-230.979183H128.403546a13.836951 13.836951 0 0 1-13.835951-13.836951V239.924772a13.836951 13.836951 0 0 1 13.835951-13.836951H298.318945a13.836951 13.836951 0 0 1 0 27.672902H142.239497v430.872477H298.318945a13.836951 13.836951 0 0 1 0 27.673902z m472.105331-467.586347a13.836951 13.836951 0 0 1-13.282953-10.146964l-27.672902-99.899647a13.836951 13.836951 0 1 1 26.657906-7.379974l27.673902 99.899647a13.836951 13.836951 0 0 1-13.375953 17.526938z m-125.820555 34.868877a13.836951 13.836951 0 0 1-13.282953-10.146965l-27.673902-99.900646a13.836951 13.836951 0 1 1 26.658906-7.379974l27.672902 99.900647a13.836951 13.836951 0 0 1-13.374953 17.526938zM796.527184 828.073693a13.836951 13.836951 0 0 1-13.282953-10.146964L753.727335 711.384105a13.836951 13.836951 0 1 1 26.658906-7.379974l29.517896 106.542624a13.836951 13.836951 0 0 1-13.375953 17.526938z m125.913555-34.683878a13.836951 13.836951 0 0 1-13.282953-10.146964l-29.517896-106.542623a13.836951 13.836951 0 1 1 26.657906-7.379974l29.518896 106.542623a13.836951 13.836951 0 0 1-13.375953 17.526938z" fill="#18252F" p-id="15088"></path><path d="M616.928819 179.688985a13.836951 13.836951 0 0 1-13.282953-10.146964l-32.469885-117.057587a13.836951 13.836951 0 0 1 9.224967-17.065939L706.682502 0.550618a13.836951 13.836951 0 0 1 17.065939 9.223967l32.653885 117.519585a13.836951 13.836951 0 0 1-9.223967 17.06494l-126.559553 34.868876a13.836951 13.836951 0 0 1-3.689987 0.459999z m-15.403945-121.209572l25.089911 90.399681 99.162649-27.672902-24.721912-90.214682z m227.105197 885.636869a13.836951 13.836951 0 0 1-13.375953-10.146964l-32.100887-116.042589a13.836951 13.836951 0 0 1 9.223968-17.06594l126.282553-35.144876a13.836951 13.836951 0 0 1 17.06494 9.224967l32.193886 116.04259a13.836951 13.836951 0 0 1-9.224967 17.06594l-125.912555 34.867877a14.02095 14.02095 0 0 1-4.150985 1.199995z m-15.128947-119.917576l24.813912 89.108685 99.25465-27.673902-24.812913-89.384684z m-46.489836-102.667637a13.836951 13.836951 0 0 1-13.375952-10.146964L631.319768 269.442667a13.836951 13.836951 0 0 1 9.223968-17.064939l125.821555-34.868877a13.836951 13.836951 0 0 1 17.064939 9.224967L906.206796 669.136254a13.836951 13.836951 0 0 1-9.223967 17.06594l-126.282554 34.867877a13.836951 13.836951 0 0 1-3.689987 0.460998zM661.667661 275.438646l115.028593 415.098533 99.16265-27.672902-115.029594-415.098533z" fill="#18252F" p-id="15089"></path><path d="M584.458934 937.382306H298.501945a13.836951 13.836951 0 0 1-13.835951-13.835951V14.756568A13.836951 13.836951 0 0 1 298.501945 0.919617h285.956989a13.836951 13.836951 0 0 1 13.836951 13.836951v908.789787a13.836951 13.836951 0 0 1-13.836951 13.835951zM312.153896 909.710404H570.437983V28.592519H312.153896z" fill="#18252F" p-id="15090"></path><path d="M584.458934 191.956941H298.501945a13.836951 13.836951 0 0 1 0-27.672902h285.956989a13.836951 13.836951 0 0 1 0 27.672902z m0 575.603966H298.501945a13.836951 13.836951 0 0 1 0-27.672903h285.956989a13.836951 13.836951 0 0 1 0 27.672903z m-82.09671-146.022484H380.507655a13.836951 13.836951 0 0 1-13.836951-13.836951V330.96945a13.836951 13.836951 0 0 1 13.836951-13.836951h121.854569a13.836951 13.836951 0 0 1 13.835951 13.836951V607.701472a13.836951 13.836951 0 0 1-13.835951 13.836951z m-108.018618-27.672902h94.550666v-249.05912h-94.549666zM199.616294 330.600451h27.673902V607.701472h-27.673902z" fill="#18252F" p-id="15091"></path></svg>